<svg xmlns="http://www.w3.org/2000/svg" xmlns:xlink="http://www.w3.org/1999/xlink" viewBox="0 0 462.86 462.86"><defs><style>.cls-1{fill:url(#radial-gradient);}.cls-2{fill:url(#radial-gradient-2);}.cls-3{fill:url(#radial-gradient-3);}.cls-4{fill:url(#linear-gradient);}.cls-5{fill:url(#linear-gradient-2);}</style><radialGradient id="radial-gradient" cx="235.4" cy="333.72" r="139.75" gradientUnits="userSpaceOnUse"><stop offset="0" stop-color="#e2003a"/><stop offset="0.47" stop-color="#c6052e"/><stop offset="1" stop-color="#a10c1f"/></radialGradient><radialGradient id="radial-gradient-2" cx="157.79" cy="42.08" r="802.86" gradientUnits="userSpaceOnUse"><stop offset="0" stop-color="#fff"/><stop offset="0.02" stop-color="#fef7e7"/><stop offset="0.1" stop-color="#fbd686"/><stop offset="0.17" stop-color="#f8bd3e"/><stop offset="0.22" stop-color="#f7ae11"/><stop offset="0.25" stop-color="#f6a800"/><stop offset="0.3" stop-color="#f29105"/><stop offset="0.37" stop-color="#ee7b0a"/><stop offset="0.45" stop-color="#ec690d"/><stop offset="0.54" stop-color="#ea5d10"/><stop offset="0.67" stop-color="#e85612"/><stop offset="1" stop-color="#e85412"/></radialGradient><radialGradient id="radial-gradient-3" cx="335.44" cy="19.32" r="235.8" gradientUnits="userSpaceOnUse"><stop offset="0" stop-color="#ced400"/><stop offset="0.34" stop-color="#b2ca0a"/><stop offset="1" stop-color="#70b221"/></radialGradient><linearGradient id="linear-gradient" x1="388.7" y1="90.24" x2="360.12" y2="415.36" gradientUnits="userSpaceOnUse"><stop offset="0.16" stop-color="#31bdea"/><stop offset="0.38" stop-color="#27aedc"/><stop offset="0.81" stop-color="#0d88b8"/><stop offset="1" stop-color="#0074a5"/></linearGradient><linearGradient id="linear-gradient-2" x1="273.02" y1="235.94" x2="262.3" y2="414.58" gradientUnits="userSpaceOnUse"><stop offset="0" stop-color="#fff"/><stop offset="0.53" stop-color="#f3f3f3"/><stop offset="0.74" stop-color="#ededed"/><stop offset="1" stop-color="#b3b3b3"/></linearGradient></defs><title>Asset 1</title><g id="Layer_2" data-name="Layer 2"><g id="Calque_2" data-name="Calque 2"><path class="cls-1" d="M178.42,349.22l-23,100.84a232,232,0,0,0,177.28-10.48L234,304.05Z"/><path class="cls-2" d="M0,231.43A231.14,231.14,0,0,0,97.06,419.87L193.4,3.13C83.68,21.27,0,116.57,0,231.43Z"/><path class="cls-3" d="M415.93,91.72A231.18,231.18,0,0,0,259.12,1.66L194.46,281.38Z"/><path class="cls-4" d="M462.86,231.43a230.57,230.57,0,0,0-19.12-92.2L285.39,270.44l99.44,134.25A230.84,230.84,0,0,0,462.86,231.43Z"/><path class="cls-5" d="M443.74,139.23a231.21,231.21,0,0,0-27.81-47.51L194.46,281.38,259.12,1.66A232.25,232.25,0,0,0,193.4,3.13L97.06,419.87a230.52,230.52,0,0,0,58.34,30.19l23-100.84L234,304.05l98.67,135.53a231.75,231.75,0,0,0,52.15-34.89L285.39,270.44Z"/></g></g></svg>